<svg preserveAspectRatio="none" overflow="visible" style="display: block;" width="134" height="10.8755" viewBox="0 0 134 10.8755" fill="none" xmlns="http://www.w3.org/2000/svg">
<g id="Vector">
<path d="M7.90329 0H11.2164L5.57365 4.89369L11.5112 10.8596L8.13938 10.8749L3.53881 6.4399L2.40793 7.55858V10.8755H0V0H2.40793L2.51313 4.6839L7.90329 0Z" fill="white"/>
<path d="M14.968 10.8749H12.4359L17.3448 0H19.7839L24.6927 10.8749H22.1606L21.0579 8.37389H16.0555L14.968 10.8749ZM20.4677 6.77324L18.557 2.25204L16.6775 6.77324H20.4683H20.4677Z" fill="white"/>
<path d="M32.492 0C33.4553 0 34.9929 0.0623867 35.8945 0.839163C36.64 1.47587 36.7642 2.34623 36.7642 2.98294C36.7642 3.66675 36.6241 4.33465 36.0339 4.92488C35.6455 5.31327 35.1171 5.57749 34.6046 5.68575V5.73224C35.0241 5.80992 35.5367 6.02766 35.8627 6.36895C36.3599 6.86621 36.3911 7.42524 36.4217 7.96898L36.5146 9.33599C36.5611 9.91093 36.5299 10.2834 36.9654 10.8742H34.4021C34.1067 10.4394 34.0137 10.0351 33.9825 9.47605L33.9361 8.46624C33.9049 7.95369 33.8737 7.37876 33.377 6.97508C32.9263 6.60198 32.1654 6.5714 31.7147 6.5714H28.7318V10.8749H26.3239V0H32.492ZM28.7324 4.89369H32.119C32.6627 4.89369 33.3153 4.75423 33.6572 4.55178C33.9367 4.38114 34.341 3.99275 34.341 3.26246C34.341 2.53217 33.9838 2.19026 33.7043 2.01962C33.1758 1.67771 32.415 1.70891 31.9177 1.70891H28.7331V4.89369H28.7324Z" fill="white"/>
<path d="M48.4436 4.42762V6.2295H41.3782V9.04118H48.7573V10.8742H38.9703V0H48.5708V1.83307H41.3782V4.42762H48.4436Z" fill="white"/>
<path d="M61.1701 10.8749H58.7774L52.7341 3.41843V10.8749H50.3261V0H52.7341L58.7615 7.35185V0H61.1695V10.8749H61.1701Z" fill="white"/>
<path d="M71.9204 2.37681V10.8749H69.559V0H73.2293L76.3944 8.0118H76.4568L79.6219 0H83.2922V10.8749H80.9308V2.37681L77.5363 10.8749H75.3143L71.9198 2.37681H71.9204Z" fill="white"/>
<path d="M88.5123 0V10.8749H86.1044V0H88.5123Z" fill="white"/>
<path d="M99.9 10.8749H91.3245V0H93.7325V9.0106H99.9V10.8749Z" fill="white"/>
<path d="M110.122 10.8749H101.547V0H103.954V9.0106H110.122V10.8749Z" fill="white"/>
<path d="M121.196 4.42762V6.2295H114.13V9.04118H121.51V10.8742H111.723V0H121.323V1.83307H114.13V4.42762H121.196Z" fill="white"/>
<path d="M134 10.8749H131.607L125.564 3.41843V10.8749H123.156V0H125.564L131.591 7.35185V0H133.999V10.8749H134Z" fill="white"/>
</g>
</svg>
