<svg overflow="visible" style="display: block;" width="24" height="23" viewBox="0 0 24 23" fill="none" xmlns="http://www.w3.org/2000/svg">
<g id="Group 281">
<path id="Vector" d="M4.60284 22.8113C4.39545 22.6572 4.26871 22.4492 4.22262 22.1872C4.18421 21.933 4.22262 21.621 4.33784 21.2512L6.64225 14.3639L0.766003 10.1345C0.451067 9.90337 0.232148 9.67225 0.109246 9.44113C-0.0136558 9.20231 -0.0328592 8.95964 0.0516358 8.71311C0.128449 8.47429 0.282077 8.29325 0.512518 8.16999C0.75064 8.04673 1.06558 7.98895 1.45733 7.99665L8.68165 8.03132L10.8708 1.12092C10.9937 0.75113 11.1474 0.47379 11.3317 0.288896C11.5161 0.0962988 11.735 0 11.9885 0C12.2573 0 12.4839 0.0962988 12.6683 0.288896C12.8526 0.47379 13.0063 0.75113 13.1292 1.12092L15.3183 8.03132L22.5427 7.99665C22.9267 7.98895 23.2378 8.04673 23.476 8.16999C23.7141 8.29325 23.8715 8.47429 23.9484 8.71311C24.0329 8.95964 24.0137 9.20231 23.8908 9.44113C23.7679 9.67225 23.5489 9.90337 23.234 10.1345L17.3578 14.3639L19.6506 21.2512C19.7735 21.621 19.8119 21.933 19.7659 22.1872C19.7275 22.4492 19.6046 22.6572 19.3972 22.8113C19.1898 22.973 18.9555 23.0308 18.6943 22.9846C18.4331 22.9384 18.1451 22.7997 17.8302 22.5686L11.9885 18.2698L6.16984 22.5686C5.85491 22.7997 5.56686 22.9384 5.30569 22.9846C5.04452 23.0308 4.81024 22.973 4.60284 22.8113Z" fill="black"/>
</g>
</svg>
