<svg overflow="visible" style="display: block;" width="21" height="20" viewBox="0 0 21 20" fill="none" xmlns="http://www.w3.org/2000/svg">
<g id="heart--reward-social-rating-media-heart-it-like-favorite-love">
<path id="&#226;&#156;&#143;&#239;&#184;&#143; Right Title" d="M0.5 6.21113C0.5 10.8468 5.0973 15.742 10.2942 19.3887C10.3883 19.4506 10.4588 19.5 10.4941 19.5C10.5412 19.5 10.6117 19.4506 10.7058 19.3887C15.9027 15.742 20.5 10.8468 20.5 6.21113C20.5 2.81165 18.3836 0.5 15.5029 0.5C13.316 0.5 11.9874 1.93396 11.1526 3.3432C10.8821 3.73878 10.7293 4.07749 10.4941 4.07749C10.259 4.07749 10.0944 3.75114 9.84744 3.3432C9.03615 1.9216 7.68401 0.5 5.49706 0.5C2.6164 0.5 0.5 2.81165 0.5 6.21113Z" stroke="black"/>
</g>
</svg>
