<svg width="100%" height="100%" overflow="visible" style="display: block;" viewBox="0 0 53.5871 22" fill="none" xmlns="http://www.w3.org/2000/svg">
<g id="Apple_Pay_logo 1" clip-path="url(#clip0_0_213)">
<path id="XMLID_34_" d="M9.79638 2.83635C9.16841 3.57945 8.16365 4.16556 7.1589 4.08183C7.0333 3.07707 7.52521 2.00951 8.10086 1.35014C8.72883 0.586108 9.82778 0.0418649 10.7174 0C10.8221 1.04662 10.4139 2.07231 9.79638 2.83635ZM10.7069 4.28069C9.25214 4.19696 8.00666 5.10752 7.31589 5.10752C6.61465 5.10752 5.55756 4.32255 4.40628 4.34348C2.90961 4.36441 1.5176 5.21218 0.753568 6.56232C-0.816365 9.26261 0.345385 13.2607 1.86299 15.4586C2.60609 16.5471 3.49572 17.7402 4.66793 17.6984C5.77735 17.6565 6.21694 16.9762 7.55661 16.9762C8.90675 16.9762 9.29401 17.6984 10.4662 17.6774C11.6803 17.6565 12.4443 16.589 13.1874 15.5005C14.0352 14.2655 14.3806 13.0618 14.4015 12.999C14.3806 12.9781 12.0571 12.0885 12.0362 9.40913C12.0152 7.16936 13.8677 6.10181 13.9515 6.03901C12.9049 4.49001 11.2721 4.32255 10.7069 4.28069ZM19.1113 1.24548V17.5623H21.6441V11.9838H25.1503C28.353 11.9838 30.6032 9.78592 30.6032 6.60419C30.6032 3.42245 28.3949 1.24548 25.2341 1.24548H19.1113ZM21.6441 3.38059H24.5642C26.7621 3.38059 28.0181 4.55281 28.0181 6.61465C28.0181 8.6765 26.7621 9.85918 24.5538 9.85918H21.6441V3.38059ZM35.2293 17.6879C36.8202 17.6879 38.2959 16.882 38.9657 15.6051H39.0181V17.5623H41.3625V9.44053C41.3625 7.08563 39.4786 5.56803 36.5794 5.56803C33.8896 5.56803 31.901 7.10656 31.8278 9.22074H34.1094C34.2978 8.21598 35.2293 7.55661 36.5062 7.55661C38.0552 7.55661 38.9239 8.27878 38.9239 9.60799V10.5081L35.7631 10.6965C32.8221 10.8744 31.2312 12.078 31.2312 14.1713C31.2312 16.2854 32.8744 17.6879 35.2293 17.6879ZM35.9096 15.7517C34.5595 15.7517 33.7012 15.1028 33.7012 14.1085C33.7012 13.0828 34.5281 12.4862 36.1085 12.392L38.9239 12.2141V13.1351C38.9239 14.6632 37.6261 15.7517 35.9096 15.7517ZM44.4919 22C46.9619 22 48.1237 21.058 49.1389 18.2008L53.5871 5.72502H51.0124L48.0295 15.3644H47.9772L44.9943 5.72502H42.3463L46.6375 17.6042L46.4072 18.3264C46.02 19.5509 45.392 20.0219 44.2721 20.0219C44.0733 20.0219 43.686 20.001 43.529 19.98V21.9372C43.6755 21.9791 44.3035 22 44.4919 22Z" fill="white"/>
</g>
<defs>
<clipPath id="clip0_0_213">
<rect width="53.5871" height="22" fill="white"/>
</clipPath>
</defs>
</svg>
