<svg width="100%" height="100%" overflow="visible" style="display: block;" viewBox="0 0 11.2497 20" fill="none" xmlns="http://www.w3.org/2000/svg">
<g id="Group">
<path id="Vector" d="M11.1486 7.78517C11.0336 7.60642 10.8361 7.50017 10.6249 7.50017H6.24992V0.625264C6.24992 0.330268 6.04368 0.0752718 5.75493 0.0140226C5.46118 -0.0484765 5.17369 0.102771 5.05369 0.371518L0.0537577 11.6214C-0.0324911 11.8139 -0.0137412 12.0389 0.101257 12.2151C0.216256 12.3926 0.413753 12.5001 0.625 12.5001H4.99994V19.375C4.99994 19.67 5.20619 19.925 5.49493 19.9862C5.53868 19.995 5.58243 20 5.62493 20C5.86743 20 6.09367 19.8587 6.19617 19.6288L11.1961 8.37891C11.2811 8.18516 11.2649 7.96266 11.1486 7.78517Z" fill="white"/>
</g>
</svg>
